<?xml version="1.0" encoding="utf-8"?>
<!-- Generator: Adobe Illustrator 25.3.0, SVG Export Plug-In . SVG Version: 6.00 Build 0)  -->
<svg version="1.1" id="Capa_1" xmlns="http://www.w3.org/2000/svg" xmlns:xlink="http://www.w3.org/1999/xlink" x="0px" y="0px"
	 viewBox="0 0 877 163" style="enable-background:new 0 0 877 163;" xml:space="preserve">
<style type="text/css">
	.st0{fill:#3730A3;}
	.st1{fill:#DC2626;}
</style>
<g>
	<g>
		<path class="st0" d="M20.9,89.5C20.9,55.6,43,29,73,29c12.6,0,21.8,5.8,27.3,15.6l-14,10.8c-3.7-5.7-8-8.6-14.3-8.6
			C54.7,46.8,42,66.3,42,88.2c0,15,5.6,24.8,19.7,24.8c4,0,8-1.4,10.7-3.4l4.1-19.2h-16l3.1-16.8h34.2l-9.1,46.8
			c-7.4,5.8-18.3,10.2-30.5,10.2C34.9,130.6,20.9,115.3,20.9,89.5z"/>
		<path class="st0" d="M104.1,90.7c0-33.7,20.1-61.7,49.1-61.7c20.2,0,32.9,15.2,32.9,39.9c0,33.7-19.9,61.7-48.8,61.7
			C116.9,130.6,104.1,115.4,104.1,90.7z M165,67c0-13.5-4.4-20.2-13.8-20.2c-15.2,0-26,20.8-26,45.7c0,13.5,4.5,20.2,14.1,20.2
			C154.5,112.7,165,91.9,165,67z"/>
		<path class="st0" d="M189.7,90.7c0-33.7,20.1-61.7,49.1-61.7c20.2,0,32.9,15.2,32.9,39.9c0,33.7-19.9,61.7-48.8,61.7
			C202.5,130.6,189.7,115.4,189.7,90.7z M250.5,67c0-13.5-4.4-20.2-13.8-20.2c-15.2,0-26,20.8-26,45.7c0,13.5,4.5,20.2,14.1,20.2
			C240.1,112.7,250.5,91.9,250.5,67z"/>
		<path class="st0" d="M290.2,30.8h21.7l2.9,35.4l0.5,14.9h0.6l5.7-14.4l18.3-35.9h21.6l-19.5,98h-17.8l7.4-36.5
			c1.9-9.7,8.2-30.9,11.1-41h-0.6c-0.5,0.9-10.9,23.7-11.7,25.3l-12.9,26h-12.2l-2.5-24c-0.1-0.9-1.4-26.3-1.6-27.2h-0.6
			c-1.2,12.2-3.1,30-4.7,38.1l-8.1,39.5h-17.3L290.2,30.8z"/>
		<path class="st0" d="M381.6,30.8h63.9l-3.4,17.3h-43.5l-4.1,21.2h36.3l-3.4,17.3h-36.3l-5.1,24.8h44.8l-3.4,17.3H362L381.6,30.8z"
			/>
		<path class="st0" d="M463.7,30.8h29.9c19.2,0,34.1,6.8,34.1,25.9c0,24.8-21.7,36.1-43.3,36.1h-12.6l-7.1,35.9h-20.6L463.7,30.8z
			 M484.2,76.5c14.5,0,22.7-7,22.7-17.6c0-8.2-5.6-11.8-16.1-11.8h-9.9l-5.7,29.4H484.2z M498.6,80.7l19.7,48.1h-22.8l-14.3-39.5
			L498.6,80.7z"/>
	</g>
</g>
<g>
	<g>
		<path class="st1" d="M521.7,112.7l13.4-11.7c5.5,8.5,13.2,13.2,22.5,13.2c9,0,15.1-3.9,15.1-10.8c0-5.7-4.3-8.8-11.3-13l-9.1-5.5
			c-8.9-5.3-16.4-13.5-16.4-26.1c0-17.4,14.6-28.6,33.4-28.6c13.8,0,25.9,7,32.5,16.3l-13.1,11.3c-4.6-5.5-11.1-10.1-19.5-10.1
			c-6.7,0-11.9,3.6-11.9,9.6c0,5,4,8.2,9.2,11.5l10.6,6.7c9.5,6.2,16.8,13,16.8,26.1c0,19.6-15.9,30.1-35.6,30.1
			C540.5,131.8,528.6,123.7,521.7,112.7z"/>
		<path class="st1" d="M629,32h63.9l-3.4,17.3H646l-4.1,21.2h36.3l-3.4,17.3h-36.3l-5.1,24.8h44.8l-3.4,17.3h-65.3L629,32z"/>
		<path class="st1" d="M710.5,32h20.6l11.8,51.3l3.8,21.3h0.6c1-10.3,2.7-27.3,4.2-34.7l7.5-37.9h19.4l-19.6,98h-20.2l-12.5-51.3
			l-3.8-21.3h-0.6c-1,10.7-2.5,26.5-4.3,36l-7.1,36.6h-19.4L710.5,32z"/>
		<path class="st1" d="M796.1,32h21.9c26.1,0,41.5,12.6,41.5,38.5c0,38.6-22,59.5-52.4,59.5h-30.6L796.1,32z M806.7,113.4
			c17.8,0,31.8-12.8,31.8-41.6c0-16.3-8.5-23.2-21-23.2h-4.1l-12.8,64.8H806.7z"/>
	</g>
</g>
</svg>
